<?xml version="1.0" encoding="UTF-8"?>
<svg id="Camada_1" data-name="Camada 1" xmlns="http://www.w3.org/2000/svg" viewBox="0 0 1218.85 324.75">
  <defs>
    <style>
      .cls-1 {
        fill: #f44336;
      }

      .cls-2 {
        fill-rule: evenodd;
      }
    </style>
  </defs>
  <path class="cls-1" d="M1127.62,78.29c-16.48,0-36.01-78.29,0-78.29,36.02,0,16.48,78.29,0,78.29Z"/>
  <path class="cls-1" d="M1147.98,97.92c-8.24-14.19,50.17-70.16,68.18-39.15,18.01,31.01-59.95,53.34-68.18,39.15Z"/>
  <path class="cls-1" d="M1108.74,96.91c-8.24,14.19-86.2-8.14-68.19-39.15,18.01-31.01,76.43,24.96,68.19,39.15Z"/>
  <path class="cls-1" d="M1117.12,118.68c11.66,11.59-30.21,80.68-55.68,55.36-25.46-25.32,44.02-66.95,55.68-55.36Z"/>
  <path class="cls-1" d="M1139.17,120.1c11.66-11.59,81.14,30.04,55.67,55.36-25.46,25.32-67.32-43.77-55.67-55.36Z"/>
  <path d="M672.17,143.92c-14,0-16.62-3.79-16.62-16.04s2.63-16.33,16.62-16.33,16.92,3.79,16.92,16.33-2.63,16.04-16.92,16.04Z"/>
  <path class="cls-2" d="M790.28,324.75c-36.75,0-65.92-20.42-65.92-76.71s29.17-75.54,65.92-75.54,65.92,20.13,65.92,75.54-29.46,76.71-65.92,76.71ZM828.78,248.04c0,44.62-17.21,55.71-38.5,55.71s-38.5-11.08-38.5-55.71,17.21-54.83,38.5-54.83,38.5,10.5,38.5,54.83Z"/>
  <path d="M659.05,315.7c0,6.12,3.21,7,13.13,7s13.12-.88,13.12-7v-134.46c0-5.83-3.21-6.71-13.12-6.71,10.74,0-13.13,20.13-13.13,20.13v121.04Z"/>
  <path d="M672.17,174.54h-.21c-14.96.19-12.91,20.13-12.91,20.13,0,0,23.86-20.13,13.13-20.13Z"/>
  <path d="M625.89,309.58c0-4.96-1.75-11.37-5.25-11.37-2.62,0-9.92,4.37-19.83,4.37-14.58,0-22.17-6.42-22.17-25.37v-82.54h80.4s-2.05-19.94,12.91-20.12l-93.32.58v-27.42c0-5.83-2.92-7-10.21-7s-9.63,1.17-10.5,6.12l-4.67,28.87-18.37,2.33c-3.5.58-4.38,2.33-4.38,8.17,0,6.12,1.17,8.46,5.83,8.46h16.04v88.37c0,32.08,17.5,41.42,40.25,41.42,9.62,0,17.5-1.46,24.79-3.79,6.12-2.04,8.46-4.67,8.46-11.08Z"/>
  <path d="M969.54,172.79c31.79,0,45.5,18.08,45.5,46.67v96.25c0,6.12-3.5,7-13.12,7s-13.13-.88-13.13-7v-91.58c0-15.75-5.83-28.58-25.96-28.58-14.58,0-28,7.29-35.88,17.79-3.21,4.08-5.25,9.62-5.25,16.04v86.33c0,6.12-3.21,7-13.13,7s-13.12-.88-13.12-7v-134.46c0-5.54,2.92-6.71,9.92-6.71s9.33,1.17,10.21,5.83l3.5,16.63c13.12-15.75,33.25-24.21,50.46-24.21Z"/>
  <path d="M485.21,174.54c9.92,0,13.12.88,13.12,6.71v134.46c0,5.54-1.75,7-9.92,7-7.29,0-9.33-1.17-10.21-5.54l-3.21-17.79c-12.83,16.33-32.67,25.08-50.17,25.08-31.79,0-45.21-18.37-45.21-46.67v-96.54c0-5.83,3.21-6.71,13.12-6.71s13.12.88,13.12,6.71v91.87c0,15.75,5.83,28.29,25.96,28.29,14.58,0,27.42-7.29,35-16.92,3.5-4.67,5.25-10.21,5.25-16.62v-86.62c0-5.83,3.21-6.71,13.12-6.71Z"/>
  <path d="M319.27,322.71c-9.92,0-13.12-.88-13.12-7l-.02-200.64c0-6.12,3.21-7,13.12-7s13.12.88,13.12,7l.02,200.64c0,6.12-3.21,7-13.12,7Z"/>
  <path class="cls-2" d="M200.97,324.75c-36.75,0-65.92-20.42-65.92-76.71s29.17-75.54,65.92-75.54,65.92,20.13,65.92,75.54-29.46,76.71-65.92,76.71ZM239.47,248.04c0,44.62-17.21,55.71-38.5,55.71s-38.5-11.08-38.5-55.71,17.21-54.83,38.5-54.83,38.5,10.5,38.5,54.83Z"/>
  <path d="M50.17,324.75c-16.33,0-29.46-2.04-39.67-5.83-7.29-2.63-10.5-5.54-10.5-11.96s3.79-13.42,7.58-13.42c4.08,0,16.92,10.79,45.5,10.79,19.25,0,28.87-7,28.87-21.58,0-12.54-9.04-18.96-33.54-23.62C21.29,253.87,0,243.96,0,215.08c0-22.17,17.21-42.87,55.42-42.87,13.42,0,24.21,2.04,34.42,5.25,7.29,2.33,10.21,5.54,10.21,11.96s-3.5,13.42-7.58,13.42c-3.79,0-16.04-10.21-40.83-10.21-17.79,0-26.83,9.63-26.83,20.42,0,12.83,11.08,18.96,32.08,23.04,27.71,5.54,50.17,15.46,50.17,45.5,0,24.79-17.5,43.17-56.87,43.17Z"/>
</svg>